<?xml version="1.0" encoding="UTF-8" standalone="no"?>
<svg
   xmlns:dc="http://purl.org/dc/elements/1.1/"
   xmlns:cc="http://creativecommons.org/ns#"
   xmlns:rdf="http://www.w3.org/1999/02/22-rdf-syntax-ns#"
   xmlns:svg="http://www.w3.org/2000/svg"
   xmlns="http://www.w3.org/2000/svg"
   xmlns:sodipodi="http://sodipodi.sourceforge.net/DTD/sodipodi-0.dtd"
   xmlns:inkscape="http://www.inkscape.org/namespaces/inkscape"
   width="100px"
   height="100px"
   viewBox="0 0 100 100"
   aria-hidden="true"
   role="img"
   class="iconify iconify--gis"
   preserveAspectRatio="xMidYMid meet"
   version="1.1"
   id="svg4"
   sodipodi:docname="object_fastupload.svg"
   inkscape:version="0.92.5 (2060ec1f9f, 2020-04-08)"
   inkscape:export-filename="/home/john/WWW/dolibarr/htdocs/custom/fastupload/img/object_fastupload.png"
   inkscape:export-xdpi="23.040001"
   inkscape:export-ydpi="23.040001">
  <metadata
     id="metadata10">
    <rdf:RDF>
      <cc:Work
         rdf:about="">
        <dc:format>image/svg+xml</dc:format>
        <dc:type
           rdf:resource="http://purl.org/dc/dcmitype/StillImage" />
        <dc:title></dc:title>
      </cc:Work>
    </rdf:RDF>
  </metadata>
  <defs
     id="defs8" />
  <sodipodi:namedview
     pagecolor="#505050"
     bordercolor="#ffffff"
     borderopacity="1"
     objecttolerance="10"
     gridtolerance="10"
     guidetolerance="10"
     inkscape:pageopacity="0"
     inkscape:pageshadow="2"
     inkscape:window-width="1920"
     inkscape:window-height="1043"
     id="namedview6"
     showgrid="false"
     inkscape:zoom="2.36"
     inkscape:cx="50"
     inkscape:cy="50"
     inkscape:window-x="0"
     inkscape:window-y="293"
     inkscape:window-maximized="1"
     inkscape:current-layer="svg4" />
  <path
     id="path817"
     d="m 28.135,37.309 c -1.027338,-1.64e-4 -2.002872,0.451039 -2.668,1.234 L 0.832,67.559 c -1.9305267,2.274263 -0.31315299,5.766457 2.67,5.765 l 93,-0.064 c 2.98229,-0.0012 4.59682,-3.493119 2.666,-5.766 L 74.59,38.543 C 73.924872,37.760039 72.949338,37.308836 71.922,37.309 H 64.66 c -0.002,2.333 -0.008,4.666 -0.008,7 h 5.649 l 18.64,21.957 -77.873,0.052 18.686,-22.01 h 5.586 c 0.002,-2.333 0.003,-4.666 0,-7 z m 61.775,40.955 -9.178,0.007 8.211,9.67 -77.875,0.053 8.22,-9.682 L 10.1,78.32 0.832,89.234 C -1.1000369,91.508312 0.5178321,95.002182 3.502,95 l 93,-0.064 c 2.98229,-0.0012 4.59682,-3.493119 2.666,-5.766 z"
     inkscape:connector-curvature="0"
     style="fill:#00384e;fill-opacity:1"
     sodipodi:nodetypes="cccccccccccccccccccccccccccc" />
  <path
     d="M 50,5 24.637,30.469 H 41.34 V 51.174 H 58.66 V 30.469 h 16.703 z"
     id="path2"
     inkscape:connector-curvature="0"
     style="fill:#cb4f24;fill-opacity:1"
     sodipodi:nodetypes="cccccccc" />
</svg>
